/* XPM */
static char * stonewall_xpm[] = {
"64 64 256 2",
"  	c #000000",
". 	c #0F0F0F",
"+ 	c #1F1F1F",
"@ 	c #2F2F2F",
"# 	c #3F3F3F",
"$ 	c #4B4B4B",
"% 	c #5B5B5B",
"& 	c #6B6B6B",
"* 	c #7B7B7B",
"= 	c #8B8B8B",
"- 	c #9B9B9B",
"; 	c #ABABAB",
"> 	c #BBBBBB",
", 	c #0F0B07",
"' 	c #170F0B",
") 	c #271B0F",
"! 	c #2F2313",
"~ 	c #372B17",
"{ 	c #4B371B",
"] 	c #5B431F",
"^ 	c #0B0B0F",
"/ 	c #070700",
"( 	c #070000",
"_ 	c #47331B",
": 	c #533723",
"< 	c #633F2B",
"[ 	c #6F4733",
"} 	c #7F533F",
"| 	c #8B5F47",
"1 	c #775363",
"2 	c #6B4B57",
"3 	c #5F3F4B",
"4 	c #4B2F37",
"5 	c #371F23",
"6 	c #231313",
"7 	c #CBB3A7",
"8 	c #BFA39B",
"9 	c #AF978B",
"0 	c #A3877B",
"a 	c #977B6F",
"b 	c #876F5F",
"c 	c #7B6353",
"d 	c #6B5747",
"e 	c #5F4B3B",
"f 	c #533F33",
"g 	c #433327",
"h 	c #372B1F",
"i 	c #271F17",
"j 	c #1B130F",
"k 	c #1F2B1F",
"l 	c #070B07",
"m 	c #000000",
"n 	c #000000",
"o 	c #000000",
"p 	c #000000",
"q 	c #000000",
"r 	c #000000",
"s 	c #000000",
"t 	c #000000",
"u 	c #000000",
"v 	c #000000",
"w 	c #000000",
"x 	c #000000",
"y 	c #000000",
"z 	c #000000",
"A 	c #000000",
"B 	c #000000",
"C 	c #000000",
"D 	c #000000",
"E 	c #000000",
"F 	c #000000",
"G 	c #000000",
"H 	c #000000",
"I 	c #000000",
"J 	c #000000",
"K 	c #000000",
"L 	c #000000",
"M 	c #000000",
"N 	c #000000",
"O 	c #000000",
"P 	c #000000",
"Q 	c #000000",
"R 	c #000000",
"S 	c #000000",
"T 	c #000000",
"U 	c #000000",
"V 	c #000000",
"W 	c #000000",
"X 	c #000000",
"Y 	c #000000",
"Z 	c #000000",
"` 	c #000000",
" .	c #000000",
"..	c #000000",
"+.	c #000000",
"@.	c #000000",
"#.	c #000000",
"$.	c #000000",
"%.	c #000000",
"&.	c #000000",
"*.	c #000000",
"=.	c #000000",
"-.	c #000000",
";.	c #000000",
">.	c #000000",
",.	c #000000",
"'.	c #000000",
").	c #000000",
"!.	c #000000",
"~.	c #000000",
"{.	c #000000",
"].	c #000000",
"^.	c #000000",
"/.	c #000000",
"(.	c #000000",
"_.	c #000000",
":.	c #000000",
"<.	c #000000",
"[.	c #000000",
"}.	c #000000",
"|.	c #000000",
"1.	c #000000",
"2.	c #000000",
"3.	c #000000",
"4.	c #000000",
"5.	c #000000",
"6.	c #000000",
"7.	c #000000",
"8.	c #000000",
"9.	c #000000",
"0.	c #000000",
"a.	c #000000",
"b.	c #000000",
"c.	c #000000",
"d.	c #000000",
"e.	c #000000",
"f.	c #000000",
"g.	c #000000",
"h.	c #000000",
"i.	c #000000",
"j.	c #000000",
"k.	c #000000",
"l.	c #000000",
"m.	c #000000",
"n.	c #000000",
"o.	c #000000",
"p.	c #000000",
"q.	c #000000",
"r.	c #000000",
"s.	c #000000",
"t.	c #000000",
"u.	c #000000",
"v.	c #000000",
"w.	c #000000",
"x.	c #000000",
"y.	c #000000",
"z.	c #000000",
"A.	c #000000",
"B.	c #000000",
"C.	c #000000",
"D.	c #000000",
"E.	c #000000",
"F.	c #000000",
"G.	c #000000",
"H.	c #000000",
"I.	c #000000",
"J.	c #000000",
"K.	c #000000",
"L.	c #000000",
"M.	c #000000",
"N.	c #000000",
"O.	c #000000",
"P.	c #000000",
"Q.	c #000000",
"R.	c #000000",
"S.	c #000000",
"T.	c #000000",
"U.	c #000000",
"V.	c #000000",
"W.	c #000000",
"X.	c #000000",
"Y.	c #000000",
"Z.	c #000000",
"`.	c #000000",
" +	c #000000",
".+	c #000000",
"++	c #000000",
"@+	c #000000",
"#+	c #000000",
"$+	c #000000",
"%+	c #000000",
"&+	c #000000",
"*+	c #000000",
"=+	c #000000",
"-+	c #000000",
";+	c #000000",
">+	c #000000",
",+	c #000000",
"'+	c #000000",
")+	c #000000",
"!+	c #000000",
"~+	c #000000",
"{+	c #000000",
"]+	c #000000",
"^+	c #000000",
"/+	c #000000",
"(+	c #000000",
"_+	c #000000",
":+	c #000000",
"<+	c #000000",
"[+	c #000000",
"}+	c #000000",
"|+	c #000000",
"1+	c #000000",
"2+	c #000000",
"3+	c #000000",
"4+	c #000000",
"5+	c #000000",
"6+	c #000000",
"7+	c #000000",
"8+	c #000000",
"9+	c #000000",
"0+	c #000000",
"a+	c #000000",
"b+	c #000000",
"c+	c #000000",
"d+	c #000000",
"e+	c #000000",
"f+	c #000000",
"g+	c #000000",
"h+	c #000000",
"i+	c #000000",
"j+	c #000000",
"k+	c #000000",
"l+	c #000000",
"m+	c #000000",
"n+	c #000000",
"o+	c #000000",
"p+	c #000000",
"q+	c #000000",
"r+	c #000000",
"s+	c #000000",
"t+	c #000000",
"u+	c #000000",
"v+	c #000000",
"w+	c #000000",
"x+	c #000000",
"y+	c #000000",
"z+	c #000000",
"A+	c #000000",
"B+	c #000000",
"C+	c #000000",
"D+	c #000000",
"E+	c #000000",
"F+	c #000000",
"G+	c #000000",
"e d d d d c d d e d 4 g e f f d d e g g h @ # d % e # d d d d d d d c b b * b c c c c * e c d d d e e d d e e e d d c b c c d d ",
"e c c d g d d d d d b g # g $ f # # # # % % % d % $ f f e d e d d d d d c c c c d c b b e d e d e d e g e d f d d d d d b d c b ",
"d c d d e a b e d d b % $ # # # # # # $ & % e $ e $ f # g f 4 $ d c c d c c d d c c d c d e e e d c f g c c e d d d d e c b c b ",
"d c c e b b c d c d d c & % $ e $ d $ c & d $ % % % % d $ $ $ $ $ e d d c c c c c c d e $ e d d d d d c a d d d d d c d d d b 9 ",
"d c b c d d c c c d d c a % d & c % d % c d % d e # $ # f # f # g # d d d d d c c c e f 4 f d d d e d c e f e d d d c d b b b a ",
"d c c c d c c d d d c d b $ 3 # # 4 @ e & d # f # # # # # f # $ $ # f e d d d d d d d e $ e e d d d e f f d c c c c d f c f e c ",
"b b b b c c c b c c b c b d # $ $ $ # & & d $ d % % % % d % % d % $ # # e f f e e e f f # f f f f e f e 4 d c c c a a d d e e f ",
"c b b c d b b d d c c c c $ c b c d $ b & % $ d c $ % e $ d d % $ d $ $ # g @ h @ @ @ # $ $ # # f f 4 e # @ h d b c c d b d c e ",
"c d c d c b e f e c b d c e d c c d % * & % $ $ % $ $ % $ % % $ d % c % c d % $ $ % % % & & $ $ # $ # $ $ $ @ + 6 h g g f $ d $ ",
"d b b b a b e d c c c d d d c c d d % * & % $ $ & % % % % % & d c d % c d c & d c & & % % * & * * * c 0 & 0 % b c d $ f # g # e ",
"d b c c b c d c c b b d c d d d d d c * b & d & & % % c & c c e d d d % d c c e d c c % & & & 0 a b b c c b d b c c c d c d d c ",
"d d c c c c c a 9 0 b b c d d c d e e c % d e % % $ $ % c % % $ d d d d d d e f d & % % & & & b c d d c d c d d d c d d d d c d ",
"e d d c b b b b b b b d b d c d d e e c c e $ c % % & b d % d $ d c d d e e e e d % % & & & c b d e d c b b d c d d d b c d c d ",
"d e d e c b b b a b b b c d c c d d d c b e d % % & b d d % d e d c c c d d d e e % % c c b c b e d c b a b c c c d c c c c d d ",
"e e d d c c c d c b c c b d d c c d d d b d f # e $ f e e e % d d d c d c c d d d d % % c d c c d c a 0 b c c d c b b d b b c c ",
"d e d d c d d e d e c c d d d c c d d d c d # % c d d c c d d d d d c c c c d d d $ % d c d c c b 0 a c d b c c c b b c b b c d ",
"c c c d c b c d d c c c d d c c c d e d c $ f $ c d d c c d d d d d d d c c e f $ e % c b c c c c b c c c c b d c b c c d d d e ",
"c b c c c b c d d c c d d e d c d d d c d $ $ c d d c c d d % d c c c e d d e f e % d d c c c c d c b c b b d d d d e d e e d & ",
"e d b d d c c c e c d c e e e c d d e d % $ % d c d c c d d d d d c c d c d e f d d e d d d d d c c c c d b d e e e e f d e d c ",
"d c d e e e e d d c b c e e e c d d $ $ % % d d c c d d d d e d d c c d d d d d d d e d c c c d d c d c c d c d d c d d d d d b ",
"c c d d d d d d b c c d e e d c e e $ e & e d c c d d e e d e d d d d d c d b d c c c c d d c d b d c d d d c c d e e f d e d c ",
"c c c d d d c b c d d d d d e c $ % d & c d c c c d e e d c 2 d c c c d d c c d c c d d d e d c d c d d c d c c d d d d e f d d ",
"d c e c c c c c c d d d d e e c $ % c d c d d d d e e e d c d c c c c d d e e d d d e d d c b c d c c d d c c c c c c c e e a b ",
"b c c b b c d d d d d d e f f % e c d c c d d d d c c & c % d c d d d d d e e d e e e f f d e d d d e f d d d c d c c d d c a d ",
"b c b c d d c d e e d d $ f % c % d d d d 3 d d $ e $ e e e d d d d d d d e d e f e d f f e d d d d e e d d c c c c c d c d d e ",
"b b b b c c e f d d c d $ $ d c d e e e d f $ e $ f # f f $ e e e e e e e f % e e d e f f d d d d d d e d d c c d d c c c d d e ",
"e d c d d f g $ d d d d $ # % e e d c c b b b a b a c d d e d d e d d d d d c d c c d e e e e d d c b c d c c c b b d d d d d e ",
"# f f e $ # $ d 2 $ d % e d d d d a c b c c b c d c c b c d d e e f f e e e e d $ f f e e e e d 1 c c c c b b a c d c c c d e f ",
"# # g $ g $ 3 e $ $ % e $ d d d c b c c c c c d b b b c c c b b d e e e % e c e e f f e e e e d d c d d c c c d d d d d e f e f ",
"% $ $ $ $ % $ $ % $ % % $ d d c b d e d c b b c c c c c c c c c c c e e e e d e e f e e d e 3 d c d d d d d d e e d d e f e e d ",
"& c & & $ $ $ $ % $ & & % d d c d e d d d b c c c b b c c c c c c c e d e d d e d d d d d d e e c d c d d d c d d d f f e e e e ",
"c d d % f d b a * & 0 a b d d d c c d c c c b c d c d d c c c b c d d d d c c f # f f f e f f f e d d e d d d d e f f f d e f $ ",
"a b b d e c b c c e c b c c e c c d d d c c c d c c d d c c d d d d c a b b a c d e e e $ d e e $ d e d d d e e f e e e e f e d ",
"b c b a d c c c c d b b c c b e c c c d d c c c c c d c c d d d d c d d d c c d d d e e e f f $ f f f e e f f e e e $ e f # f e ",
"c d d d b b c d d % c c c d c d g e d e d e c d d c c c c c c d b d d d c b c c d c f d e e e e d $ e e f f d d e $ f e % e $ e ",
"c c c d c c c d & c b c d d c b b f d d c e c c d c c c c c c d d d d b c c c b d c d d e e d f $ e d $ e e d d e f f e d e e d ",
"c c b d e e d c c d c c d d d c b a % d d d c d e c c d d b c c c d d b c c c c c c d e e d $ f f e $ f e $ d d d d % e d d % d ",
"b c c e e d c d d d c e d d d c c c b e e d c c c b d d d d c b b c c d d b b c c d c d d c % d c c c % % d $ e $ d % e e d e $ ",
"c b d d b c b c c d b c d d c c c d d b d f d c c c b b c d b c b c c c b b e e f f f f f e e f e % % $ $ $ f $ e $ e f e f # f ",
"g d c c c d e d b d d d c c c d c c c d b b e d b b & & c c d d c b c c d f e $ e d f e 3 d e $ $ # $ # f # $ f $ e f f % g g # ",
"% f # c b c c b c d d d c d c d c c d d c b a d c c c c c c d d d c b c $ e % f $ e $ e $ 3 e $ % % & $ $ $ % $ $ e # c % # d d ",
"% d # h d c d c d b c d d d c d d c d e d d d b c d % d d d d d e d c e $ $ % # $ $ d $ $ $ $ $ % % % $ $ $ $ $ $ $ $ $ % f e d ",
"c * c % @ e c c c c d c c c c d d d d d d d d c c b d d c d c c c d d f $ d * % $ e % % % & & % & b * a = * c % % % $ % c $ e d ",
"c b & c d f c b c c b d c b c c d d b c c d c d d d c d d c c c c c d $ c & = d % c % 3 % c % % % $ $ % % % c & & b c & % e e e ",
"b b b b b b c c b c c d c c c c d d c c d c d c c c c b c c c c c c f & c c a d c b c c a & a & & & c & % % % % d $ # $ c % $ d ",
"b b c c b c c b b c b c c c c b c c d d d d c c d d c c d d c b d g $ c d d b d d c d d d d c * & b * 0 = * c % d $ f d c % e % ",
"c & c c c d b c d c c c c b c c c c d d % d d d d d c c d f h i h % d d d d b d d d c d d d d d % % % & c d % d % c % % c % e % ",
"c c d c c c c c c c c c c c c d c c d d d d c d e e f g @ @ # $ % d d c d d c c d c c d c d d % d % $ $ f # f $ $ $ # e * e f c ",
"& b c b b c c b b b b b c c c c c c c c c d d d % d c % c % % $ $ e $ c d e c c d c c c c c d c % d c d % c % b % c % b & # $ e ",
"c c b a b b c b b b b c c b c d d c c d c c d c d c d c % e % $ 3 d e d d d c c c c c c d d d d e % d $ d % d & d % d c % $ c e ",
"c c c b b c c c c c c c c d d d d d d d d d d d d c c % c d & d % c c & c d c b b c c b c d d c $ d % % % % d & % % $ % d $ b d ",
"e c c d d d c c c c c d d d d c d d d d d d d d d c d d d c c % c c c c b d b b b c c c b c d c d $ % % d % % d % % $ c & d c d ",
"d b d c c c d c c c d d d d c d d d d d c d b c c b d b b d c c b c c b b b c c b b c c b c d b d d & d % b c % % c % & d c c & ",
"0 a d c c d d c c d b c c c c d d d d d d d c d c d 2 e f f d c d c c c c c b % d c c b c d % e f $ e $ f $ # f # # # g $ c & c ",
"c d c d c c c c c c c c c c c d d d c d d d c c d d d d e c a c d d c d c c c b c c b b c c d d e g # f # f # # # # # # & % % % ",
"c c c c c c c c b b c c c b b c c d c c c c b c d c c b b b c d d d d c b b b c & c c b b c c c % e # e % f d d % d $ $ * c % % ",
"d d d c d d d c c b b c c d c c c c c c c c b c d c b b b c % c c & c b b a b b b b c c b d c % d % d % % d % % e % % # c % d % ",
"d d c d d d d d d d d d d d d d d d d c d d c d d c c c d e e e d c % c c e f f b c d d c d d e $ $ % c c % % % % * & $ & & % c ",
"c d c d d c c d d d e d d d d e d d c c c d e d c c c c b c c c d d c b a f f 0 9 c c b c d d $ d * b & % % % % b & & & & a * * ",
"b b b c b b c d d c c c [ d d d c c d d d e d c c c c c c c c b c c c b c c a 9 0 d c b c d e d % b % c % c % % % % $ % d % % % ",
"d f c c b b d d c b c c c d c c c c c c c d d c d c d d c c d d c d c d c b b a d c d d e f f $ $ # g @ $ # # # # # # # # $ $ $ ",
"g f 0 b c c d c c c c c c c b c c c c c c d d d c d c d c c e e d d c c b c d d d e e f f f f d & $ $ $ % $ d & $ d % f d & d $ ",
"f 0 9 a c b c c c c c c c b b a b c b a b d c e e b b a d e d d d d c c c c c c d e d e e e d % c $ & % % % % d % d & % b & % & ",
"b 9 a c c b b b b b b b b a a c c a b d c * b 0 b a a a c c b e e d d c d c d d e f e e c d c % & % & % * * & & b b & & & & % & "};
